<?xml version="1.0" encoding="utf-8"?>
<!-- Generator: Adobe Illustrator 18.1.1, SVG Export Plug-In . SVG Version: 6.00 Build 0)  -->
<svg version="1.1" id="Layer_1" xmlns="http://www.w3.org/2000/svg" xmlns:xlink="http://www.w3.org/1999/xlink" x="0px" y="0px"
	 viewBox="0 0 848 323.7" enable-background="new 0 0 848 323.7" xml:space="preserve">
<g>
	<rect id="bg_23_" x="48" y="31" fill="#1281C5" width="800" height="292.7"/>
	<rect id="bg_47_" x="168" y="151.6" fill="#005682" width="560" height="172.1"/>
	<rect id="bg_48_" x="520" y="95" fill="#005682" width="208" height="24"/>
	<path id="bg_24_" fill="#FFFFFF" d="M848,32H48V8c0-4.4,3.6-8,8-8h784c4.4,0,8,3.6,8,8V32z"/>
	<circle fill="#F15D5D" cx="64.1" cy="16" r="6"/>
	<circle fill="#F4B846" cx="86.1" cy="16" r="6"/>
	<circle fill="#53B953" cx="108.1" cy="16" r="6"/>
	<g>
		<rect id="bg_25_" x="0" y="110" fill="#010101" width="208" height="213.7"/>
		<path id="bg_26_" fill="#ABABAB" d="M208,110H0V86c0-4.4,3.6-8,8-8h192c4.4,0,8,3.6,8,8V110z"/>
		<circle fill="#908F8F" cx="16.1" cy="94" r="6"/>
		<g>
			<path id="bg_27_" fill="#C0BFBF" d="M100,126H12c-2.2,0-4-1.8-4-4v0c0-2.2,1.8-4,4-4h88c2.2,0,4,1.8,4,4v0
				C104,124.2,102.2,126,100,126z"/>
			<path id="bg_28_" fill="#C0BFBF" d="M116,142H12c-2.2,0-4-1.8-4-4v0c0-2.2,1.8-4,4-4h104c2.2,0,4,1.8,4,4v0
				C120,140.2,118.2,142,116,142z"/>
			<path id="bg_29_" fill="#C0BFBF" d="M108,158H12c-2.2,0-4-1.8-4-4v0c0-2.2,1.8-4,4-4h96c2.2,0,4,1.8,4,4v0
				C112,156.2,110.2,158,108,158z"/>
			<path id="bg_32_" fill="#C0BFBF" d="M132,174H12c-2.2,0-4-1.8-4-4v0c0-2.2,1.8-4,4-4h120c2.2,0,4,1.8,4,4v0
				C136,172.2,134.2,174,132,174z"/>
			<path id="bg_31_" fill="#C0BFBF" d="M68,190H12c-2.2,0-4-1.8-4-4v0c0-2.2,1.8-4,4-4h56c2.2,0,4,1.8,4,4v0
				C72,188.2,70.2,190,68,190z"/>
			<path id="bg_30_" fill="#C0BFBF" d="M116,206H12c-2.2,0-4-1.8-4-4v0c0-2.2,1.8-4,4-4h104c2.2,0,4,1.8,4,4v0
				C120,204.2,118.2,206,116,206z"/>
			<path id="bg_35_" fill="#C0BFBF" d="M108,222H12c-2.2,0-4-1.8-4-4v0c0-2.2,1.8-4,4-4h96c2.2,0,4,1.8,4,4v0
				C112,220.2,110.2,222,108,222z"/>
			<path id="bg_34_" fill="#C0BFBF" d="M68,238H12c-2.2,0-4-1.8-4-4v0c0-2.2,1.8-4,4-4h56c2.2,0,4,1.8,4,4v0
				C72,236.2,70.2,238,68,238z"/>
			<path id="bg_33_" fill="#C0BFBF" d="M132,254H12c-2.2,0-4-1.8-4-4v0c0-2.2,1.8-4,4-4h120c2.2,0,4,1.8,4,4v0
				C136,252.2,134.2,254,132,254z"/>
			<path id="bg_37_" fill="#C0BFBF" d="M116,286H12c-2.2,0-4-1.8-4-4l0,0c0-2.2,1.8-4,4-4h104c2.2,0,4,1.8,4,4l0,0
				C120,284.2,118.2,286,116,286z"/>
			<path id="bg_36_" fill="#C0BFBF" d="M68,302H12c-2.2,0-4-1.8-4-4l0,0c0-2.2,1.8-4,4-4h56c2.2,0,4,1.8,4,4l0,0
				C72,300.2,70.2,302,68,302z"/>
		</g>
	</g>
	<rect id="bg_38_" x="48" y="31" fill="#010101" width="800" height="32"/>
	<path id="bg_39_" fill="#6A6A6A" d="M102,53H62c-2.2,0-4-1.8-4-4v-4c0-2.2,1.8-4,4-4h40c2.2,0,4,1.8,4,4v4
		C106,51.2,104.2,53,102,53z"/>
	<path id="bg_40_" fill="#6A6A6A" d="M176,53h-56c-2.2,0-4-1.8-4-4v-4c0-2.2,1.8-4,4-4h56c2.2,0,4,1.8,4,4v4
		C180,51.2,178.2,53,176,53z"/>
	<path id="bg_41_" fill="#6A6A6A" d="M250,53h-56c-2.2,0-4-1.8-4-4v-4c0-2.2,1.8-4,4-4h56c2.2,0,4,1.8,4,4v4
		C254,51.2,252.2,53,250,53z"/>
	<path id="bg_42_" fill="#6A6A6A" d="M316,53h-48c-2.2,0-4-1.8-4-4v-4c0-2.2,1.8-4,4-4h48c2.2,0,4,1.8,4,4v4
		C320,51.2,318.2,53,316,53z"/>
	<path id="bg_43_" fill="#6A6A6A" d="M358,53h-24c-2.2,0-4-1.8-4-4v-4c0-2.2,1.8-4,4-4h24c2.2,0,4,1.8,4,4v4
		C362,51.2,360.2,53,358,53z"/>
	<circle fill="#6A6A6A" cx="832" cy="47" r="6"/>
	<circle fill="#6A6A6A" cx="810" cy="47" r="6"/>
	<circle fill="#6A6A6A" cx="788" cy="47" r="6"/>
	<path id="bg_44_" fill="#6A6A6A" d="M768,53h-24c-2.2,0-4-1.8-4-4v-4c0-2.2,1.8-4,4-4h24c2.2,0,4,1.8,4,4v4
		C772,51.2,770.2,53,768,53z"/>
	<path id="bg_45_" fill="#6A6A6A" d="M726,53h-24c-2.2,0-4-1.8-4-4v-4c0-2.2,1.8-4,4-4h24c2.2,0,4,1.8,4,4v4
		C730,51.2,728.2,53,726,53z"/>
	<path id="bg_46_" fill="#6A6A6A" d="M684,53h-24c-2.2,0-4-1.8-4-4v-4c0-2.2,1.8-4,4-4h24c2.2,0,4,1.8,4,4v4
		C688,51.2,686.2,53,684,53z"/>
</g>
</svg>
